<svg width="175" height="55" viewBox="0 0 175 55" fill="none" xmlns="http://www.w3.org/2000/svg">
<path fill-rule="evenodd" clip-rule="evenodd" d="M13.565 54.3689H17.6359V32.6214H13.565V54.3689ZM28.4876 54.0427H32.1337V40.3214L47.4811 54.3689V32.9476H43.8451V46.4345L28.4876 32.6214V54.0427ZM55.8046 48.7757C57.7891 50.3218 60.1711 51.2155 62.7248 51.2155C65.2121 51.2155 66.957 50.3592 66.957 48.4682C66.957 46.8201 65.8442 46.1745 63.8954 45.4524L60.7403 44.3566C57.8316 43.3235 55.6194 41.8148 55.6194 38.3471C55.6194 34.6381 58.9682 32.6214 62.9728 32.6214C65.4262 32.6214 67.6621 33.2381 69.4087 34.3306V38.009C67.5925 36.6667 65.6046 35.7425 63.051 35.7425C60.8524 35.7425 59.2095 36.5631 59.2095 38.274C59.2095 39.8201 60.2408 40.4386 62.057 41.0604L65.5723 42.2939C68.9789 43.4917 70.542 45.3488 70.542 48.4036C70.542 52.2468 67.1609 54.3689 62.7248 54.3689C59.8092 54.3689 57.3303 53.5534 55.8046 52.5238V48.7757ZM80.0396 54.3689H84.1087V32.6214H80.0396V54.3689ZM103.199 51.0779C107.786 51.0779 110.238 48.1352 110.238 43.49C110.238 38.8109 107.785 35.8784 103.199 35.8784H98.6626V51.0779H103.199ZM94.9587 32.6214H103.335C109.783 32.6214 113.952 36.8689 113.952 43.49C113.952 50.1163 109.783 54.3689 103.335 54.3689H94.9587V32.6214ZM134.303 32.6214V35.8784H124.454V41.1114H133.287V44.3311H124.452V51.0779H134.303V54.3689H120.736V32.6214H134.303ZM148.748 42.4689H152.787C155.177 42.4689 156.525 41.1573 156.525 39.1405C156.525 37.1238 155.177 35.8104 152.787 35.8104H148.748V42.4706V42.4689ZM148.748 45.5442V54.3689H145.155V32.6214H152.855C157.245 32.6214 160.086 34.8828 160.086 39.1405C160.086 42.7816 158.509 44.8731 155.15 45.41L162.791 54.3689H158.703L151.305 45.5459H148.75L148.748 45.5442ZM12.143 11.1966C13.735 10.6138 14.9752 8.86553 14.9752 6.46141C14.9752 2.4551 12.143 0.378883 7.61165 0.378883H0V22.7432H8.31845C12.8498 22.7432 15.682 20.5209 15.682 16.3328C15.682 13.9643 14.1954 11.8881 12.143 11.1966ZM3.57476 9.77621V3.65801H7.57767C10.0922 3.65801 11.4362 4.56869 11.4362 6.68058C11.4362 8.79248 10.0905 9.77621 7.57767 9.77621H3.57476ZM3.57476 12.9092H8.24709C10.7277 12.9092 12.0716 14.1461 12.0716 16.1867C12.0716 18.1898 10.726 19.4658 8.24879 19.4658H3.57646V12.9075L3.57476 12.9092ZM32.29 23.1068C37.4942 23.1068 40.9993 19.9738 40.9993 13.8556V0.378883H37.3175V13.4172C37.3175 17.7158 35.5471 19.7206 32.29 19.7206C29.033 19.7206 27.2643 17.7158 27.2643 13.4172V0.378883H23.5825V13.8182C23.5825 19.9738 27.1216 23.1068 32.29 23.1068ZM49.6677 21.1393C51.19 22.2335 53.6689 23.1068 56.5709 23.1068C60.9968 23.1068 64.3592 20.8471 64.3592 16.7694C64.3592 13.5277 62.8029 11.5602 59.4032 10.2859L55.8998 8.97427C54.0937 8.32015 53.0675 7.66432 53.0675 6.02476C53.0675 4.2034 54.6951 3.3301 56.8903 3.3301C59.4388 3.3301 61.4216 4.31214 63.2277 5.73422V1.83495C61.493 0.671117 59.2621 0.0152913 56.8189 0.0152913C52.8194 0.0152913 49.491 2.16456 49.491 6.09782C49.491 9.77621 51.6862 11.3784 54.5881 12.4709L57.7398 13.6364C59.6869 14.401 60.7845 15.0942 60.7845 16.8425C60.7845 18.8456 59.0498 19.7563 56.5709 19.7563C54.0223 19.7563 51.6505 18.8083 49.6677 17.1704V21.1393ZM77.5148 0.378883H73.8347V22.7415H77.5148V0.378883ZM88.0182 22.7143H91.5658V8.16553L106.497 23.0609V0.344903H102.959V14.6456L88.0182 0V22.7143ZM129.503 0.383981V3.73277H119.945V9.11529H128.516V12.4267H119.945V19.3638H129.503V22.7483H116.336V0.383981H129.503ZM138.075 21.124C139.597 22.2182 142.075 23.0915 144.978 23.0915C149.402 23.0915 152.767 20.8335 152.767 16.7541C152.767 13.5124 151.208 11.5466 147.81 10.2706L144.305 8.96068C142.499 8.30485 141.473 7.64903 141.473 6.00947C141.473 4.18811 143.101 3.31481 145.296 3.31481C147.844 3.31481 149.827 4.29854 151.633 5.71893V1.82136C149.899 0.655825 147.668 0 145.225 0C141.225 0 137.897 2.14927 137.897 6.08252C137.897 9.76092 140.092 11.3631 142.994 12.4556L146.145 13.6211C148.092 14.3857 149.19 15.0789 149.19 16.8272C149.19 18.8303 147.457 19.741 144.976 19.741C142.428 19.741 140.056 18.7947 138.075 17.1551V21.124ZM160.308 21.124C161.831 22.2182 164.31 23.0915 167.212 23.0915C171.638 23.0915 175 20.8335 175 16.7541C175 13.5124 173.442 11.5466 170.044 10.2706L166.539 8.96068C164.734 8.30485 163.707 7.64903 163.707 6.00947C163.707 4.18811 165.336 3.31481 167.529 3.31481C170.078 3.31481 172.062 4.29854 173.867 5.71893V1.82136C172.134 0.655825 169.903 0 167.46 0C163.458 0 160.132 2.14927 160.132 6.08252C160.132 9.76092 162.327 11.3631 165.229 12.4556L168.381 13.6211C170.328 14.3857 171.425 15.0789 171.425 16.8272C171.425 18.8303 169.691 19.741 167.212 19.741C164.663 19.741 162.291 18.7947 160.308 17.1551V21.124Z" fill="white" fill-opacity="0.5"/>
</svg>
