<svg width="143" height="25" viewBox="0 0 143 25" fill="none" xmlns="http://www.w3.org/2000/svg">
<line x1="2" y1="4.5" x2="2" y2="20.5" stroke="white" stroke-width="4" stroke-linecap="round"/>
<line x1="12" y1="6.5" x2="12" y2="18.5" stroke="white" stroke-width="4" stroke-linecap="round"/>
<line x1="22" y1="8.5" x2="22" y2="16.5" stroke="white" stroke-width="4" stroke-linecap="round"/>
<path d="M32.816 19V0.849999H42.298V2.819H34.334L35.049 2.236V9.914L34.334 8.924H41.803V10.882H34.334L35.049 9.892V19H32.816ZM50.027 19.352C48.9784 19.352 48.0287 19.0953 47.178 18.582C46.3347 18.0613 45.6637 17.35 45.165 16.448C44.6737 15.546 44.428 14.5157 44.428 13.357C44.428 12.213 44.67 11.1937 45.154 10.299C45.638 9.397 46.3017 8.68567 47.145 8.165C47.9884 7.64433 48.949 7.384 50.027 7.384C50.9804 7.384 51.8494 7.59667 52.634 8.022C53.426 8.44733 54.0384 9.03767 54.471 9.793V7.736H56.605V19H54.471V16.888C53.9797 17.6653 53.349 18.2703 52.579 18.703C51.809 19.1357 50.9584 19.352 50.027 19.352ZM50.599 17.515C51.369 17.515 52.0474 17.339 52.634 16.987C53.228 16.6277 53.6937 16.1363 54.031 15.513C54.3684 14.8897 54.537 14.1747 54.537 13.368C54.537 12.5613 54.3684 11.8463 54.031 11.223C53.6937 10.5997 53.228 10.112 52.634 9.76C52.0474 9.40067 51.369 9.221 50.599 9.221C49.8364 9.221 49.158 9.40067 48.564 9.76C47.97 10.112 47.5007 10.5997 47.156 11.223C46.8187 11.8463 46.65 12.5613 46.65 13.368C46.65 14.1673 46.8187 14.8823 47.156 15.513C47.5007 16.1363 47.97 16.6277 48.564 16.987C49.158 17.339 49.8364 17.515 50.599 17.515ZM61.1085 19V7.736H63.2425V9.386C63.6165 8.73333 64.0932 8.23833 64.6725 7.901C65.2518 7.55633 65.9082 7.384 66.6415 7.384C66.9935 7.384 67.3492 7.428 67.7085 7.516C68.0752 7.59667 68.3905 7.70667 68.6545 7.846L67.7745 9.65C67.5472 9.52533 67.2832 9.42633 66.9825 9.353C66.6818 9.27967 66.3995 9.243 66.1355 9.243C65.6442 9.243 65.1748 9.37133 64.7275 9.628C64.2875 9.87733 63.9282 10.2037 63.6495 10.607C63.3782 11.0103 63.2425 11.443 63.2425 11.905V19H61.1085ZM71.2921 19V7.736H73.4261V9.188C73.9028 8.58667 74.4418 8.13567 75.0431 7.835C75.6444 7.53433 76.3118 7.384 77.0451 7.384C77.9544 7.384 78.7538 7.593 79.4431 8.011C80.1324 8.42167 80.6128 8.98267 80.8841 9.694C81.3534 8.97533 81.9181 8.41067 82.5781 8C83.2381 7.58933 84.0118 7.384 84.8991 7.384C85.7058 7.384 86.4208 7.549 87.0441 7.879C87.6674 8.209 88.1588 8.68567 88.5181 9.309C88.8774 9.93233 89.0571 10.6877 89.0571 11.575V19H86.9231V12.169C86.9231 11.2303 86.6774 10.486 86.1861 9.936C85.6948 9.386 85.0421 9.111 84.2281 9.111C83.6634 9.111 83.1538 9.23567 82.6991 9.485C82.2518 9.727 81.8961 10.046 81.6321 10.442C81.3754 10.8307 81.2471 11.2413 81.2471 11.674V19H79.1131V12.026C79.1131 11.1387 78.8711 10.431 78.3871 9.903C77.9031 9.375 77.2578 9.111 76.4511 9.111C75.8864 9.111 75.3731 9.232 74.9111 9.474C74.4564 9.70867 74.0934 10.0167 73.8221 10.398C73.5581 10.7793 73.4261 11.179 73.4261 11.597V19H71.2921ZM99.615 19L92.003 0.849999H94.533L100.495 15.634L106.457 0.849999H108.976L101.364 19H99.615ZM115.879 19.352C114.698 19.352 113.638 19.0917 112.7 18.571C111.761 18.0503 111.02 17.3427 110.478 16.448C109.935 15.546 109.664 14.5303 109.664 13.401C109.664 12.565 109.818 11.784 110.126 11.058C110.434 10.332 110.863 9.694 111.413 9.144C111.963 8.58667 112.601 8.154 113.327 7.846C114.053 7.538 114.83 7.384 115.659 7.384C116.832 7.384 117.859 7.626 118.739 8.11C119.626 8.594 120.315 9.26867 120.807 10.134C121.305 10.9993 121.555 12.004 121.555 13.148C121.555 13.2433 121.551 13.3203 121.544 13.379C121.536 13.4377 121.522 13.5147 121.5 13.61H111.82C111.82 14.3947 111.996 15.0877 112.348 15.689C112.707 16.2903 113.198 16.7633 113.822 17.108C114.452 17.4453 115.175 17.614 115.989 17.614C116.759 17.614 117.448 17.4563 118.057 17.141C118.665 16.8257 119.193 16.3563 119.641 15.733L121.203 16.547C120.667 17.4343 119.93 18.1237 118.992 18.615C118.06 19.1063 117.023 19.352 115.879 19.352ZM111.93 12.037H119.41C119.307 11.4577 119.08 10.9517 118.728 10.519C118.383 10.079 117.947 9.738 117.419 9.496C116.898 9.24667 116.322 9.122 115.692 9.122C115.032 9.122 114.434 9.243 113.899 9.485C113.371 9.71967 112.934 10.057 112.59 10.497C112.252 10.9297 112.032 11.443 111.93 12.037ZM128.028 19.352C127.089 19.352 126.257 19.1503 125.531 18.747C124.812 18.3363 124.24 17.7533 123.815 16.998L124.838 15.678C125.226 16.3307 125.696 16.8367 126.246 17.196C126.796 17.5553 127.386 17.735 128.017 17.735C128.427 17.735 128.798 17.6543 129.128 17.493C129.465 17.3317 129.733 17.1007 129.931 16.8C130.129 16.492 130.228 16.129 130.228 15.711C130.228 15.3077 130.125 14.9923 129.92 14.765C129.722 14.5303 129.425 14.325 129.029 14.149C128.64 13.973 128.152 13.7713 127.566 13.544C127.096 13.3533 126.642 13.137 126.202 12.895C125.762 12.653 125.399 12.3487 125.113 11.982C124.834 11.608 124.695 11.135 124.695 10.563C124.695 9.947 124.86 9.40067 125.19 8.924C125.527 8.44733 125.989 8.07333 126.576 7.802C127.162 7.53067 127.83 7.395 128.578 7.395C129.186 7.395 129.777 7.516 130.349 7.758C130.921 8 131.463 8.34833 131.977 8.803L131.119 10.101C130.356 9.29433 129.513 8.891 128.589 8.891C128.031 8.891 127.58 9.034 127.236 9.32C126.891 9.59867 126.719 9.96167 126.719 10.409C126.719 10.7537 126.843 11.0433 127.093 11.278C127.342 11.5053 127.661 11.7033 128.05 11.872C128.438 12.0407 128.842 12.2057 129.26 12.367C129.89 12.6017 130.44 12.8437 130.91 13.093C131.386 13.3423 131.757 13.665 132.021 14.061C132.285 14.4497 132.417 14.974 132.417 15.634C132.417 16.404 132.233 17.0677 131.867 17.625C131.507 18.1823 130.998 18.6113 130.338 18.912C129.678 19.2053 128.908 19.352 128.028 19.352ZM138.977 19.352C138.053 19.352 137.334 19.0477 136.821 18.439C136.307 17.823 136.051 16.9613 136.051 15.854V9.353H134.797V7.736H136.051V3.523H138.185V7.736H140.891V9.353H138.185V15.722C138.185 16.2793 138.295 16.7083 138.515 17.009C138.735 17.3097 139.05 17.46 139.461 17.46C139.871 17.46 140.238 17.339 140.561 17.097L141.1 18.802C140.814 18.9707 140.48 19.1027 140.099 19.198C139.725 19.3007 139.351 19.352 138.977 19.352Z" fill="white"/>
</svg>
