<?xml version="1.0" encoding="iso-8859-1"?>
<!-- Generator: Adobe Illustrator 18.0.0, SVG Export Plug-In . SVG Version: 6.00 Build 0)  -->
<!DOCTYPE svg PUBLIC "-//W3C//DTD SVG 1.1//EN" "http://www.w3.org/Graphics/SVG/1.1/DTD/svg11.dtd">
<svg fill="#fff" version="1.1" id="Capa_1" xmlns="http://www.w3.org/2000/svg" xmlns:xlink="http://www.w3.org/1999/xlink" x="0px" y="0px" viewBox="0 0 246 246" style="enable-background:new 0 0 246 246;" xml:space="preserve">
	<path d="M189.024,122.5c0,36.188-29.336,65.524-65.524,65.524c-36.188,0-65.524-29.336-65.524-65.524
	c0-36.188,29.336-65.524,65.524-65.524C159.688,56.976,189.024,86.312,189.024,122.5z M122.667,43c4.143,0,7.5-3.357,7.5-7.5v-28
	c0-4.143-3.357-7.5-7.5-7.5s-7.5,3.357-7.5,7.5v28C115.167,39.643,118.524,43,122.667,43z M184.444,68.438
	c1.919,0,3.839-0.732,5.304-2.197l14.849-14.85c2.929-2.929,2.929-7.678-0.001-10.606c-2.928-2.928-7.677-2.929-10.606,0.001
	l-14.849,14.85c-2.929,2.929-2.929,7.678,0.001,10.606C180.605,67.705,182.525,68.438,184.444,68.438z M190.366,178.14
	c-2.93-2.928-7.678-2.928-10.607,0c-2.929,2.93-2.929,7.678,0,10.607l14.85,14.85c1.465,1.464,3.385,2.196,5.304,2.196
	s3.839-0.732,5.304-2.196c2.929-2.93,2.929-7.678,0-10.607L190.366,178.14z M57.253,178.759l-14.85,14.85
	c-2.929,2.93-2.929,7.678,0,10.607c1.465,1.464,3.385,2.196,5.304,2.196s3.839-0.732,5.304-2.196l14.85-14.85
	c2.929-2.93,2.929-7.678,0-10.607C64.931,175.831,60.183,175.831,57.253,178.759z M56.634,66.859
	c1.465,1.465,3.384,2.197,5.304,2.197c1.919,0,3.839-0.732,5.303-2.196c2.93-2.929,2.93-7.678,0.001-10.606l-14.849-14.85
	c-2.93-2.93-7.679-2.929-10.606-0.001c-2.93,2.929-2.93,7.678-0.001,10.606L56.634,66.859z M238.5,114.5h-7h-21
	c-4.143,0-7.5,3.357-7.5,7.5s3.357,7.5,7.5,7.5h21h7c4.143,0,7.5-3.357,7.5-7.5S242.643,114.5,238.5,114.5z M123.667,202
	c-4.143,0-7.5,3.357-7.5,7.5v21v8c0,4.143,3.357,7.5,7.5,7.5s7.5-3.357,7.5-7.5v-8v-21C131.167,205.357,127.81,202,123.667,202z
	 M44,123c0-4.143-3.357-7.5-7.5-7.5h-21h-8c-4.143,0-7.5,3.357-7.5,7.5s3.357,7.5,7.5,7.5h8h21C40.643,130.5,44,127.143,44,123z" />
	<g>
	</g>
	<g>
	</g>
	<g>
	</g>
	<g>
	</g>
	<g>
	</g>
	<g>
	</g>
	<g>
	</g>
	<g>
	</g>
	<g>
	</g>
	<g>
	</g>
	<g>
	</g>
	<g>
	</g>
	<g>
	</g>
	<g>
	</g>
	<g>
	</g>
</svg>