<svg width="260" height="59" viewBox="0 0 260 59" fill="none" xmlns="http://www.w3.org/2000/svg">
<path d="M28.0929 54.2189C42.3948 54.2189 53.9826 42.6697 53.9826 28.4196C53.9826 14.1749 42.3948 2.62573 28.0929 2.62573C13.7945 2.62573 2.20325 14.1749 2.20325 28.4196C2.20325 42.6697 13.7945 54.2189 28.0929 54.2189Z" fill="#263238"/>
<path d="M24.1135 32.7205H33.6416L36.425 34.5181H23.693L17.979 52.1178C11.6654 49.6803 5.82187 44.0277 3.37199 37.6751C0.758893 31.5204 0.758862 23.7873 3.42872 17.6079C5.93183 11.2518 11.9439 5.51435 18.3427 3.15643C23.3773 1.07955 30.1149 0.86037 35.4546 2.49359C41.582 4.24171 47.367 8.61813 50.7323 14.3309C54.4932 20.5951 55.5487 28.5544 53.2638 35.706C51.8198 40.4501 48.8412 44.9928 44.7468 48.2433L37.7129 36.5668L47.5036 42.0056C47.5585 42.0056 47.5871 41.9454 47.5585 41.8889L34.7343 30.8575L51.3194 33.3798C51.3762 33.3798 51.3991 33.3534 51.3991 33.3251L51.2927 33.242L35.6532 27.7785L51.9047 23.8669C51.9598 23.8669 51.9598 23.8157 51.9314 23.7874L35.2612 24.8692L48.3143 15.0221C48.3427 14.9691 48.2291 14.9426 48.2007 14.9973L33.5387 22.4052L41.6334 8.17636C41.6334 8.15345 41.6334 8.0933 41.582 8.12328L31.0054 20.4891L33.0349 4.24173C33.0349 4.21161 32.9782 4.18517 32.9231 4.21161L28.0588 19.9889L23.7994 3.73969C23.771 3.7131 23.7126 3.68312 23.6859 3.73969L24.8585 20.5951L14.8142 7.56997C14.7804 7.53985 14.7557 7.57002 14.7273 7.59646L22.3253 22.0109L7.96306 14.1912C7.93638 14.1912 7.88146 14.2213 7.88146 14.2459L20.6524 24.6975L4.34946 22.9829C4.29099 23.013 4.29099 23.0624 4.34946 23.089L20.1557 27.697L4.43283 32.2997C4.4026 32.3228 4.4026 32.381 4.43283 32.4058L20.6524 30.5234L7.90806 41.309C7.88138 41.309 7.85313 41.3637 7.90806 41.3956L8.07835 41.3389L18.2859 36.0133L20.6826 32.2166H23.4057L21.5164 30.8857L27.8318 20.7911L24.1064 32.715L24.1135 32.7207" fill="white" fill-opacity="0.5"/>
<path d="M71.1404 46.0099H58.4172L68.6053 9.77319H94.6866L92.2012 18.3723H78.8909L77.1843 24.5411H90.4946L88.2505 32.4562H74.942L71.1404 46.0099Z" fill="white" fill-opacity="0.5"/>
<path d="M100.583 46.0099H88.0076L95.4654 19.5371H108.041L100.583 46.0099ZM108.724 17.0113H96.1484L98.1956 9.77319H110.771L108.724 17.0113Z" fill="white" fill-opacity="0.5"/>
<path d="M133.212 46.0098H120.879L121.755 43.0474C119.268 45.1349 116.735 46.6408 112.688 46.6408C108.592 46.6408 106.011 44.6965 106.011 40.5675C106.011 36.0037 107.815 29.2021 110.496 24.4421C112.445 20.8964 115.954 19.0511 120.098 19.0511C123.655 19.0511 126.288 20.6066 127.313 22.5473L130.824 9.77319H143.4L133.212 46.0098ZM123.754 27.4046C122.632 27.4046 121.512 27.7474 120.879 29.2993C119.951 31.5335 119.123 33.72 119.123 35.9047C119.123 36.9264 119.855 37.7995 121.072 37.7995C122.048 37.7995 122.681 37.5079 123.217 37.1703L125.754 28.4739C125.314 27.8411 124.533 27.4046 123.754 27.4046Z" fill="white" fill-opacity="0.5"/>
<path d="M168.724 34.4484H151.371C151.027 35.8554 150.688 36.8293 150.688 37.9446C150.688 38.4802 150.786 39.8394 152.54 39.8394C154.294 39.8394 155.075 39.1589 155.806 36.5853H168.139C166.579 44.1151 157.61 46.6869 152.102 46.6869C144.642 46.6869 138.841 45.6193 138.841 38.4801C138.841 34.5455 140.839 28.0356 143.473 24.5889C146.641 20.4599 152.15 18.908 157.222 18.908C165.02 18.908 170.088 20.5094 170.088 27.113C170.088 28.718 169.407 32.2619 168.724 34.4484ZM156.147 25.5611C154.587 25.5611 153.516 26.6287 152.833 29.2994H157.999C158.146 28.7656 158.341 27.9402 158.341 27.4541C158.341 25.9976 157.463 25.5611 156.147 25.5611Z" fill="white" fill-opacity="0.5"/>
<path d="M181.364 46.0099H168.787L178.975 9.77319H191.552L181.364 46.0099Z" fill="white" fill-opacity="0.5"/>
<path d="M197.981 46.0099H185.402L192.862 19.5371H205.439L197.981 46.0099ZM206.12 17.0113H193.545L195.592 9.77319H208.169L206.12 17.0113Z" fill="white" fill-opacity="0.5"/>
<path d="M228.732 19.5368L229.827 25.5111H220.201L217.373 35.5668C217.13 36.3427 216.933 37.3131 216.933 37.9459C216.933 39.1107 217.423 39.5014 219.128 39.5014H221.81L219.956 46.0095H208.745C205.039 46.0095 203.625 44.2119 203.625 41.4899C203.625 40.3763 203.772 39.1584 204.163 37.7992L210.987 13.6597H223.565L221.906 19.5368H228.732Z" fill="white" fill-opacity="0.5"/>
<path d="M58.1599 50.0797L61.2946 50.0754L59.2971 56.5924L56.1713 56.5938L58.1599 50.0786V50.0797Z" fill="white" fill-opacity="0.5"/>
<path d="M69.1017 50.0855L73.6875 50.0827L74.8636 54.4292H74.8956L76.2225 50.081L78.9438 50.0781L76.9321 56.581L72.5451 56.5969L71.2731 51.9536H71.2518L69.861 56.5881L67.1379 56.5895L69.1017 50.0867V50.0855Z" fill="white" fill-opacity="0.5"/>
<path d="M84.8878 50.0883L88.34 50.0869L88.9431 54.1824L92.1009 50.0833L95.2958 50.0791L90.0289 56.5838L86.197 56.5865L84.8878 50.0872V50.0883Z" fill="white" fill-opacity="0.5"/>
<path d="M101.306 50.0903L108.438 50.0847L108.035 51.4015L103.935 51.4057L103.538 52.742L107.382 52.7406L106.997 53.9956L103.155 53.997L102.757 55.2873L106.9 55.2831L106.483 56.6017L99.3124 56.6073L101.306 50.0903Z" fill="white" fill-opacity="0.5"/>
<path d="M131.936 51.6767L129.493 51.6781L129.977 50.0979L137.992 50.0908L137.509 51.6711L135.068 51.6738L133.571 56.5771L130.44 56.5813L131.936 51.6764V51.6767Z" fill="white" fill-opacity="0.5"/>
<path d="M144.478 50.0818L149.227 50.079L149.458 54.4272H149.477L152.309 50.0772L157.081 50.0715L155.099 56.5885L152.193 56.5914L153.683 51.6829H153.66L150.132 56.5931L147.104 56.5973L146.676 51.6888H146.644L145.156 56.5832L142.496 56.5847L144.478 50.0818Z" fill="white" fill-opacity="0.5"/>
<path d="M177.037 50.0856L181.619 50.0828L182.799 54.4293H182.829L184.156 50.0793L186.876 50.0779L184.885 56.5966L180.441 56.5839L179.207 51.9529H179.187L177.763 56.5856L175.041 56.5885L177.037 50.0856Z" fill="white" fill-opacity="0.5"/>
<path d="M194.393 51.6672L191.948 51.6687L192.432 50.0867L200.449 50.0811L199.967 51.6612L197.524 51.664L196.028 56.5831L192.894 56.5874L194.393 51.6665V51.6672Z" fill="white" fill-opacity="0.5"/>
<path d="M118.046 52.0593C117.977 51.9869 117.974 51.8631 118.002 51.7623C118.105 51.4318 118.52 51.2144 119.182 51.2144C119.572 51.213 120.172 51.2568 120.344 51.3929C120.526 51.5254 120.585 51.7252 120.521 51.9214H123.297C123.624 50.7583 122.889 50.009 119.755 50.0107C116.776 50.015 115.087 50.6506 114.653 52.0699C114.541 52.4411 114.527 52.8971 114.834 53.2047C115.602 53.9647 119.065 54.267 119.357 54.6771C119.416 54.7602 119.439 54.8591 119.404 54.9758C119.244 55.499 118.501 55.6333 117.851 55.6333C117.438 55.6333 116.902 55.5449 116.748 55.3752C116.602 55.2038 116.602 54.9422 116.686 54.7743L113.78 54.78C113.487 55.7892 113.363 56.8391 117.404 56.8373C120.792 56.8331 122.345 56.0066 122.735 54.7216C122.928 54.0924 122.736 53.7442 122.517 53.5197C121.765 52.7473 118.41 52.4627 118.046 52.0597" fill="white" fill-opacity="0.5"/>
<path d="M163.461 50.0921L170.593 50.0864L170.192 51.4033L166.09 51.406L165.693 52.7423L169.537 52.7409L169.152 53.9959L165.31 53.9973L164.912 55.2894L169.055 55.2865L168.638 56.6034L161.467 56.6105L163.461 50.0918V50.0921Z" fill="white" fill-opacity="0.5"/>
<path d="M245.71 19.5368L238.886 34.2058L239.081 19.5368H226.358L228.795 46.0095C228.483 47.5597 227.969 48.4328 226.993 48.8641C225.925 49.3378 223.511 49.2547 222.661 49.207L222.507 49.2156L220.502 56.4077L229.086 56.4162C234.156 56.4162 236.644 53.8762 240.25 48.243L258.581 19.5361H245.71" fill="#231F20"/>
<path d="M208.581 52.044C208.512 51.9698 208.51 51.846 208.537 51.7471C208.642 51.4148 209.055 51.1974 209.717 51.1974C210.107 51.1974 210.707 51.2415 210.879 51.3777C211.063 51.5085 211.122 51.7099 211.056 51.9061H213.832C214.161 50.7431 213.424 49.9918 210.29 49.9954C207.311 49.9982 205.622 50.6353 205.189 52.0547C205.076 52.4241 205.062 52.8818 205.369 53.1876C206.137 53.9494 209.6 54.2517 209.892 54.6618C209.953 54.7431 209.974 54.8439 209.939 54.9605C209.781 55.4837 209.035 55.6162 208.388 55.618C207.973 55.618 207.437 55.5297 207.283 55.3582C207.139 55.1868 207.139 54.9269 207.221 54.759L204.315 54.7618C204.022 55.7729 203.898 56.8228 207.939 56.821C211.328 56.8154 212.88 55.9903 213.272 54.7035C213.464 54.0742 213.273 53.726 213.052 53.5033C212.3 52.7309 208.945 52.4463 208.581 52.0433" fill="white" fill-opacity="0.5"/>
<path d="M247.693 45.5229C246.434 45.5229 245.415 44.5066 245.415 43.2534C245.415 42.0002 246.434 40.9838 247.693 40.9838C248.951 40.9838 249.971 42.0002 249.971 43.2534C249.971 44.5066 248.951 45.5229 247.693 45.5229ZM247.693 40.4941C246.166 40.4941 244.924 41.7333 244.924 43.2534C244.924 44.7735 246.166 46.0125 247.693 46.0125C249.217 46.0125 250.461 44.7735 250.461 43.2534C250.461 41.7333 249.217 40.4941 247.693 40.4941Z" fill="#231F20"/>
<path d="M247.218 43.0631V42.2659H247.597C247.922 42.2588 248.277 42.28 248.277 42.6618C248.277 43.0436 247.922 43.0631 247.597 43.0631H247.218ZM248.802 42.6831C248.802 42.1334 248.481 41.824 247.793 41.824H246.718V44.6698H247.218V43.505H247.597L248.312 44.6698H248.862L248.115 43.4643C248.507 43.4167 248.802 43.1762 248.802 42.6831Z" fill="#231F20"/>
<path d="M245.691 19.6012L238.888 34.2206L239.083 19.6012H226.404L228.833 45.982C228.522 47.5268 228.01 48.3964 227.037 48.8277C225.973 49.2978 223.567 49.2148 222.719 49.1671L222.567 49.1756L220.568 56.3448L229.122 56.3519C234.176 56.3519 236.654 53.8225 240.248 48.2087L258.515 19.6008H245.691V19.6012Z" fill="white" fill-opacity="0.5"/>
</svg>
