<svg width="40" height="48" viewBox="0 0 40 48" fill="none" xmlns="http://www.w3.org/2000/svg">
<path d="M34 28C36.612 28 38.836 29.67 39.66 32H20V31H6C5.25455 31 4.53579 31.2775 3.98378 31.7785C3.43178 32.2795 3.08606 32.968 3.014 33.71L3 34V35.43C3 40.778 9.778 45 20 45V44H34.942C31.362 46.486 26.122 48 20 48C8.42 48 0 42.866 0 35.43V34C0 32.4087 0.632141 30.8826 1.75736 29.7574C2.88258 28.6321 4.4087 28 6 28H34ZM40 34V35.43C40 35.964 39.954 36.488 39.86 37H20V34H40ZM39.258 39H20V42H37.268C38.122 41.078 38.794 40.072 39.258 39ZM31.908 10.5C32.0321 11.4961 32.0321 12.5038 31.908 13.5H20V10.5H31.908ZM31.482 8.5C31.1587 7.4402 30.6895 6.43052 30.088 5.5H20V8.5H31.48H31.482ZM20 1.20253e-08C23.306 1.20253e-08 26.3 1.338 28.47 3.5H20V3C17.6131 3 15.3239 3.94821 13.636 5.63604C11.9482 7.32386 11 9.61305 11 12C11 14.3869 11.9482 16.6761 13.636 18.364C15.3239 20.0518 17.6131 21 20 21V20.5H28.47C27.0728 21.8924 25.3539 22.9189 23.4654 23.4886C21.5769 24.0583 19.5771 24.1537 17.6429 23.7663C15.7088 23.379 13.9 22.5208 12.3765 21.2677C10.8531 20.0147 9.66206 18.4054 8.90882 16.5823C8.15558 14.7593 7.86337 12.7786 8.05805 10.8157C8.25273 8.85276 8.92829 6.9681 10.0249 5.32849C11.1216 3.68889 12.6055 2.3449 14.3454 1.4155C16.0853 0.486086 18.0274 -8.82862e-05 20 1.20253e-08V1.20253e-08ZM30.088 18.5H20V15.5H31.48C31.156 16.572 30.684 17.58 30.088 18.5Z" fill="#23B123"/>
</svg>
