<svg width="27" height="46" viewBox="0 0 27 46" fill="none" xmlns="http://www.w3.org/2000/svg">
<path d="M26.2502 30.9012C26.2502 22.825 19.6352 21.9045 14.3204 21.166C8.52792 20.361 5.25017 19.661 5.25017 14.6735C5.25017 10.4875 9.63742 9 13.3947 9C15.2671 8.93951 17.1271 9.32497 18.8212 10.1246C20.5154 10.9242 21.9952 12.1151 23.1387 13.599L25.8617 11.401C24.6371 9.8263 23.1134 8.50915 21.3781 7.52528C19.6428 6.54141 17.7302 5.91023 15.7502 5.668V0.25H12.2502V5.5385C5.92392 5.9235 1.75017 9.4935 1.75017 14.6735C1.75017 22.951 8.45267 23.8837 13.8374 24.631C19.5302 25.4237 22.7502 26.1045 22.7502 30.9012C22.7502 36.2072 17.2674 37 14.0002 37C7.99767 37 5.46367 35.313 3.11167 32.401L0.388672 34.599C1.776 36.4272 3.57036 37.9068 5.62934 38.9205C7.68832 39.9342 9.95524 40.4541 12.2502 40.4388V45.75H15.7502V40.4212C22.2707 39.8893 26.2502 36.349 26.2502 30.9012Z" fill="#23B123"/>
</svg>
