<svg width="34" height="28" viewBox="0 0 34 28" fill="none" xmlns="http://www.w3.org/2000/svg">
<path d="M32.7778 1.01457C31.3946 1.99332 29.863 2.74191 28.2422 3.23151C27.3723 2.22811 26.2162 1.51692 24.9302 1.19414C23.6442 0.871354 22.2904 0.952548 21.0519 1.42674C19.8134 1.90093 18.75 2.74523 18.0054 3.84546C17.2609 4.94569 16.8711 6.24877 16.8889 7.57844V9.02742C14.3505 9.09345 11.8352 8.5287 9.56701 7.38348C7.29885 6.23825 5.34824 4.5481 3.88889 2.46355C3.88889 2.46355 -1.88889 15.5043 11.1111 21.3003C8.13632 23.3259 4.59256 24.3416 1 24.1982C14 31.4431 29.8889 24.1982 29.8889 7.53497C29.8876 7.13136 29.8489 6.72875 29.7733 6.33232C31.2475 4.87391 32.2879 3.03258 32.7778 1.01457V1.01457Z" stroke="#23B123" stroke-linecap="round" stroke-linejoin="round"/>
</svg>
