<svg width="32" height="32" viewBox="0 0 32 32" fill="none" xmlns="http://www.w3.org/2000/svg">
<path fill-rule="evenodd" clip-rule="evenodd" d="M8.53496 1.5C4.64966 1.5 1.5 4.64966 1.5 8.53496V23.6049C1.5 27.4902 4.64966 30.6398 8.53496 30.6398H23.6049C27.4902 30.6398 30.6398 27.4902 30.6398 23.6049V8.53496C30.6398 4.64966 27.4902 1.5 23.6049 1.5H8.53496ZM0.5 8.53496C0.5 4.09737 4.09737 0.5 8.53496 0.5H23.6049C28.0425 0.5 31.6398 4.09737 31.6398 8.53496V23.6049C31.6398 28.0425 28.0425 31.6398 23.6049 31.6398H8.53496C4.09737 31.6398 0.5 28.0425 0.5 23.6049V8.53496ZM16.9462 10.5363C15.796 10.3657 14.6214 10.5622 13.5893 11.0977C12.5573 11.6332 11.7203 12.4805 11.1976 13.5191C10.6748 14.5577 10.4929 15.7347 10.6776 16.8827C10.8623 18.0306 11.4043 19.0911 12.2265 19.9133C13.0487 20.7355 14.1091 21.2775 15.2571 21.4622C16.4051 21.6469 17.5821 21.465 18.6207 20.9422C19.6593 20.4195 20.5066 19.5825 21.0421 18.5504C21.5776 17.5184 21.7741 16.3437 21.6035 15.1936C21.4295 14.0204 20.8829 12.9342 20.0442 12.0956C19.2056 11.2569 18.1194 10.7102 16.9462 10.5363ZM13.1288 10.2101C14.3475 9.57766 15.7347 9.34567 17.0929 9.54708C18.4783 9.75252 19.7609 10.3981 20.7513 11.3885C21.7417 12.3788 22.3873 13.6615 22.5927 15.0469C22.7941 16.4051 22.5621 17.7923 21.9297 19.011C21.2973 20.2298 20.2967 21.2181 19.0703 21.8354C17.8438 22.4528 16.4539 22.6676 15.0982 22.4495C13.7426 22.2314 12.4903 21.5913 11.5194 20.6204C10.5485 19.6495 9.90842 18.3972 9.69028 17.0415C9.47214 15.6859 9.68702 14.296 10.3043 13.0695C10.9217 11.8431 11.91 10.8425 13.1288 10.2101ZM24.3584 7.28148C24.0822 7.28148 23.8584 7.50534 23.8584 7.78148C23.8584 8.05762 24.0822 8.28148 24.3584 8.28148H24.3756C24.6518 8.28148 24.8756 8.05762 24.8756 7.78148C24.8756 7.50534 24.6518 7.28148 24.3756 7.28148H24.3584Z" fill="#23B123"/>
</svg>
