<svg width="15" height="26" viewBox="0 0 15 26" fill="none" xmlns="http://www.w3.org/2000/svg">
<path d="M15 17.515C15 12.9 11.22 12.374 8.183 11.952C4.873 11.492 3 11.092 3 8.242C3 5.85 5.507 5 7.654 5C8.72395 4.96544 9.78679 5.18569 10.7549 5.64262C11.723 6.09954 12.5686 6.78004 13.222 7.628L14.778 6.372C14.0783 5.47217 13.2076 4.71952 12.216 4.1573C11.2244 3.59509 10.1314 3.23441 9 3.096V0H7V3.022C3.385 3.242 1 5.282 1 8.242C1 12.972 4.83 13.505 7.907 13.932C11.16 14.385 13 14.774 13 17.515C13 20.547 9.867 21 8 21C4.57 21 3.122 20.036 1.778 18.372L0.222 19.628C1.01476 20.6727 2.04011 21.5182 3.21667 22.0975C4.39323 22.6767 5.68861 22.9737 7 22.965V26H9V22.955C12.726 22.651 15 20.628 15 17.515Z" fill="white"/>
</svg>
