<svg width="32" height="32" viewBox="0 0 32 32" fill="none" xmlns="http://www.w3.org/2000/svg">
<path d="M9.33325 24V9.40267C9.33316 9.09243 9.43611 8.79095 9.62594 8.54558C9.81578 8.30021 10.0817 8.12483 10.382 8.04701C10.6824 7.96918 11 7.99331 11.2851 8.11561C11.5702 8.2379 11.8067 8.45143 11.9573 8.72267L20.0426 23.2773C20.1932 23.5486 20.4296 23.7621 20.7147 23.8844C20.9998 24.0067 21.3175 24.0308 21.6178 23.953C21.9181 23.8752 22.1841 23.6998 22.3739 23.4544C22.5637 23.209 22.6667 22.9076 22.6666 22.5973V8" stroke="white" stroke-width="2" stroke-linecap="round" stroke-linejoin="round"/>
<path d="M6.66663 13.3333H25.3333" stroke="white" stroke-width="2" stroke-linecap="round" stroke-linejoin="round"/>
<path d="M6.66663 18.6667H25.3333" stroke="white" stroke-width="2" stroke-linecap="round" stroke-linejoin="round"/>
</svg>
